inDegrees=yes
name=ik_data_2024_11_07_18_20
DataType=double
version=3
OpenSimVersion=4.5.1
endheader
time	pelvis_tilt	pelvis_list	pelvis_rotation	pelvis_tx	pelvis_ty	pelvis_tz	hip_flexion_r	hip_adduction_r	hip_rotation_r	knee_angle_r	knee_angle_r_beta	ankle_angle_r	subtalar_angle_r	mtp_angle_r	hip_flexion_l	hip_adduction_l	hip_rotation_l	knee_angle_l	knee_angle_l_beta	ankle_angle_l	subtalar_angle_l	mtp_angle_l	lumbar_extension	lumbar_bending	lumbar_rotation	arm_flex_r	arm_add_r	arm_rot_r	elbow_flex_r	pro_sup_r	wrist_flex_r	wrist_dev_r	arm_flex_l	arm_add_l	arm_rot_l	elbow_flex_l	pro_sup_l	wrist_flex_l	wrist_dev_l
4.9976	0.3835466503230684	0.9899173086316169	-1.53988004900811	0	0.9399999999999999	0	-1.697131975006656	-0.1351659566482033	-7.240289086092082	0.4639760928449629	0.008097910470683508	-5.129333927182576	0	0	-0.09091077398119303	1.023812550894136	6.970162841639262	0.5111466726412419	0.008921192398203291	-5.129333927182576	0	0	0	0	0	0	-11.11763563330418	0	75.00362007979383	45.09085627298441	0	0	0	-11.11763563330418	0	75.00362007979383	45.09085627298441	0	0
5.05183	0.3874036774723865	1.011617634054743	-1.392284198339249	0	0.9399999999999999	0	-1.721180518198606	-0.1032186125283078	-7.383024283428875	0.4375061877791319	0.007635923474594429	-5.129175826037905	0	0	-0.09599684965827757	1.046440765565354	7.108476314531785	0.5142760931357631	0.008975811089512075	-5.129175826037905	0	0	0	0	0	0	-11.11819667410171	0	75.00361911830701	45.09078780578128	0	0	0	-11.11819667410171	0	75.00361911830701	45.09078780578128	0	0
5.1092	0.3848602844198921	1.034689683239531	-1.204787965701587	0	0.9399999999999999	0	-1.719233395100739	-0.1094803406690192	-7.564631661029755	0.4565638337773192	0.007968542144942319	-5.129012200667589	0	0	-0.0974676534132124	1.068347400535859	7.302255326850214	0.5147671654275552	0.008984381917869162	-5.129012200667589	0	0	0	0	0	0	-11.11879125615334	0	75.0036181049275	45.09071644829759	0	0	0	-11.11879125615334	0	75.0036181049275	45.09071644829759	0	0
5.1753	0.3830949874948931	1.049462038830117	-1.162565014357941	0	0.9399999999999999	0	-1.728608236338033	-0.08680806433489165	-7.602585868005835	0.4948829420802791	0.008637336751257265	-5.128949647885705	0	0	-0.09610997307486108	1.07065484827622	7.330822601938723	0.5294870986875548	0.009241293218929978	-5.128949647885705	0	0	0	0	0	0	-11.11902233293051	0	75.00361771316811	45.09068908223745	0	0	0	-11.11902233293051	0	75.00361771316811	45.09068908223745	0	0
5.17785	0.4667054119033349	1.038551642876064	-1.171679276817391	0	0.9399999999999999	0	-1.852141528831911	-0.03300005739058332	-7.598026649620151	0.4404015141133192	0.007686456452045696	-5.128746585728272	0	0	-0.1788407202430146	1.07221789400025	7.333896286949572	0.5138969646017514	0.008969194048305313	-5.128746585728272	0	0	0	0	0	0	-11.11972070519024	0	75.0036165074435	45.09060193491348	0	0	0	-11.11972070519024	0	75.0036165074435	45.09060193491348	0	0
5.22548	0.4330174636146115	1.081133683118485	-0.8898188294507153	0	0.9399999999999999	0	-1.819735456757685	-0.06655496374309688	-7.887895628647462	0.4743850869208506	0.008279581689128332	-5.128580076531709	0	0	-0.1489719924291988	1.112411401203815	7.616097654586978	0.5190159289725839	0.009058536830868618	-5.128580076531709	0	0	0	0	0	0	-11.12032513573917	0	75.00361547690575	45.090529319532	0	0	0	-11.12032513573917	0	75.00361547690575	45.090529319532	0	0
5.29446	0.3988578116252979	1.085736383166416	-0.8373239714024264	0	0.9399999999999999	0	-1.726317845793322	-0.04774435577722497	-7.931152883185868	0.4623138309912808	0.00806889852830645	-5.128479823880508	0	0	-0.1214513106437064	1.122713484434326	7.668287351947566	0.5086918148629556	0.008878347047304003	-5.128479823880508	0	0	0	0	0	0	-11.12066974812574	0	75.00361488177133	45.09048629109789	0	0	0	-11.12066974812574	0	75.00361488177133	45.09048629109789	0	0
5.35552	0.363716062921525	1.119837663074196	-0.6075853751283463	0	0.9399999999999999	0	-1.701113689759482	0.01941694168761006	-8.159426229396596	0.4267462095760854	0.007448126427508446	-5.128333402055306	0	0	-0.08222285164582765	1.148996002819485	7.896739180410549	0.5119871914556837	0.008935862218940261	-5.128333402055306	0	0	0	0	0	0	-11.12118072621483	0	75.00361400254387	45.09042316912528	0	0	0	-11.12118072621483	0	75.00361400254387	45.09042316912528	0	0
5.35745	0.3431784207216409	1.158077950577577	-0.3197574352249206	0	0.9399999999999999	0	-1.657594415662154	0.00666014589451884	-8.458467759668954	0.4574814642514062	0.007984557818031774	-5.128161269863264	0	0	-0.07602684721453175	1.18866746479132	8.183090783006277	0.5156083532322081	0.008999063414687978	-5.128161269863264	0	0	0	0	0	0	-11.12179751474004	0	75.00361294763511	45.09034837428327	0	0	0	-11.12179751474004	0	75.00361294763511	45.09034837428327	0	0
5.4118	0.3058472280046566	1.168948613737428	-0.2529077444390624	0	0.9399999999999999	0	-1.622144212811556	0.02217904339634671	-8.529100704960221	0.4525512322894301	0.007898509037408231	-5.128019921416639	0	0	-0.0367804994445781	1.199334288451562	8.247882714566733	0.511781066069156	0.008932264652273404	-5.128019921416639	0	0	0	0	0	0	-11.12230799245847	0	75.00361207622383	45.0902868325305	0	0	0	-11.12230799245847	0	75.00361207622383	45.0902868325305	0	0
5.47632	0.3088012703519469	1.1744960387171	-0.2191017021009209	0	0.9399999999999999	0	-1.648973214571314	0.05056667663155231	-8.562905491233213	0.4650776835953235	0.008117136856286815	-5.127892008544746	0	0	-0.03697303692519911	1.205152167883976	8.280927536876739	0.5147885266198177	0.008984754741006294	-5.127892008544746	0	0	0	0	0	0	-11.12277798891917	0	75.00361127785976	45.09023091465806	0	0	0	-11.12277798891917	0	75.00361127785976	45.09023091465806	0	0
5.52521	0.2595703208466179	1.186593423707964	-0.1279622242231758	0	0.9399999999999999	0	-1.572590215608872	0.05396918640416658	-8.64632846207566	0.4528680273146089	0.00790403815365154	-5.127794419597045	0	0	0.005066402968559617	1.217358745178776	8.369908995481897	0.5073420438637674	0.008854789099220235	-5.127794419597045	0	0	0	0	0	0	-11.12312639311674	0	75.003610680997	45.09018852205142	0	0	0	-11.12312639311674	0	75.003610680997	45.09018852205142	0	0
5.53722	0.2291893005356307	1.219009849944162	0.08411986719090886	0	0.9399999999999999	0	-1.563372649689292	0.05566448419063098	-8.864421883477091	0.4657399752633489	0.008128696026502383	-5.127644293335381	0	0	0.03976232942026039	1.24324318830571	8.587440602630421	0.5219073147309298	0.009109001032297028	-5.127644293335381	0	0	0	0	0	0	-11.12369072789284	0	75.00360972564521	45.09012230083371	0	0	0	-11.12369072789284	0	75.00360972564521	45.09012230083371	0	0
5.59797	0.2404184385461642	1.254382938857289	0.3707815082725866	0	0.9399999999999999	0	-1.562640026727181	0.05646454373880932	-9.15214107564797	0.4846786851669236	0.008459238870399819	-5.127467759509679	0	0	0.0177288379281513	1.283625332499412	8.871057313309233	0.5181462360746524	0.009043357826318503	-5.127467759509679	0	0	0	0	0	0	-11.12431410228629	0	75.00360865573698	45.09004589827507	0	0	0	-11.12431410228629	0	75.00360865573698	45.09004589827507	0	0
5.65533	0.2215451652762237	1.263742547487781	0.445400570987772	0	0.9399999999999999	0	-1.531509601103308	0.06501211662931837	-9.230945570181103	0.4938076854174659	0.00861856998218717	-5.127366735504962	0	0	0.03629048672096543	1.296901350026296	8.941982860302442	0.5164376068517844	0.009013536620683665	-5.127366735504962	0	0	0	0	0	0	-11.12468168228032	0	75.00360802870794	45.09000175755424	0	0	0	-11.12468168228032	0	75.00360802870794	45.09000175755424	0	0
